<mxfile host="app.diagrams.net" agent="Mozilla/5.0 (Windows NT 10.0; Win64; x64) AppleWebKit/537.36 (KHTML, like Gecko) Chrome/122.0.0.0 Safari/537.36" version="24.7.16">
  <diagram name="Page-1" id="QW8hZy0vqoB4EWyRL6TY">
    <mxGraphModel dx="1008" dy="1726" grid="1" gridSize="10" guides="1" tooltips="1" connect="1" arrows="1" fold="1" page="1" pageScale="1" pageWidth="850" pageHeight="1100" background="#FFFFFF" math="0" shadow="0">
      <root>
        <mxCell id="0" />
        <mxCell id="1" parent="0" />
        <mxCell id="bsLsJeDPsuY6xlqFyv93-109" value="&lt;font color=&quot;#b266ff&quot;&gt;6379&lt;/font&gt;" style="edgeStyle=orthogonalEdgeStyle;rounded=0;orthogonalLoop=1;jettySize=auto;html=1;flowAnimation=1;fillColor=#a20025;strokeColor=#6F0000;entryX=1;entryY=0.5;entryDx=0;entryDy=0;" parent="1" source="bsLsJeDPsuY6xlqFyv93-110" target="bsLsJeDPsuY6xlqFyv93-122" edge="1">
          <mxGeometry relative="1" as="geometry">
            <mxPoint x="200" y="520" as="targetPoint" />
            <Array as="points">
              <mxPoint x="190" y="520" />
            </Array>
          </mxGeometry>
        </mxCell>
        <mxCell id="bsLsJeDPsuY6xlqFyv93-110" value="User" style="rounded=0;whiteSpace=wrap;html=1;fillColor=#a20025;strokeColor=#6F0000;fontColor=#ffffff;" parent="1" vertex="1">
          <mxGeometry x="430" y="490" width="120" height="60" as="geometry" />
        </mxCell>
        <mxCell id="bsLsJeDPsuY6xlqFyv93-111" style="edgeStyle=orthogonalEdgeStyle;rounded=0;orthogonalLoop=1;jettySize=auto;html=1;entryX=0.5;entryY=1;entryDx=0;entryDy=0;flowAnimation=1;fillColor=#dae8fc;strokeColor=#6c8ebf;gradientColor=#7ea6e0;" parent="1" source="bsLsJeDPsuY6xlqFyv93-113" target="bsLsJeDPsuY6xlqFyv93-122" edge="1">
          <mxGeometry relative="1" as="geometry">
            <Array as="points">
              <mxPoint x="150" y="660" />
            </Array>
          </mxGeometry>
        </mxCell>
        <mxCell id="bsLsJeDPsuY6xlqFyv93-112" value="&lt;font color=&quot;#b266ff&quot;&gt;6379&lt;/font&gt;" style="edgeLabel;html=1;align=center;verticalAlign=middle;resizable=0;points=[];" parent="bsLsJeDPsuY6xlqFyv93-111" vertex="1" connectable="0">
          <mxGeometry x="0.1223" y="2" relative="1" as="geometry">
            <mxPoint y="-2" as="offset" />
          </mxGeometry>
        </mxCell>
        <mxCell id="bsLsJeDPsuY6xlqFyv93-113" value="Cart" style="rounded=0;whiteSpace=wrap;html=1;fillColor=#dae8fc;gradientColor=#7ea6e0;strokeColor=#6c8ebf;" parent="1" vertex="1">
          <mxGeometry x="430" y="630" width="120" height="60" as="geometry" />
        </mxCell>
        <mxCell id="bsLsJeDPsuY6xlqFyv93-114" value="Catalogue" style="rounded=0;whiteSpace=wrap;html=1;fillColor=#e1d5e7;strokeColor=#CC99FF;" parent="1" vertex="1">
          <mxGeometry x="430" y="350" width="120" height="60" as="geometry" />
        </mxCell>
        <mxCell id="bsLsJeDPsuY6xlqFyv93-115" style="edgeStyle=orthogonalEdgeStyle;rounded=0;orthogonalLoop=1;jettySize=auto;html=1;entryX=1;entryY=0.5;entryDx=0;entryDy=0;flowAnimation=1;fillColor=#fad7ac;strokeColor=#b46504;" parent="1" source="bsLsJeDPsuY6xlqFyv93-119" target="bsLsJeDPsuY6xlqFyv93-124" edge="1">
          <mxGeometry relative="1" as="geometry">
            <mxPoint x="70" y="780" as="targetPoint" />
          </mxGeometry>
        </mxCell>
        <mxCell id="bsLsJeDPsuY6xlqFyv93-116" value="&lt;font color=&quot;#b266ff&quot;&gt;3306&lt;/font&gt;" style="edgeLabel;html=1;align=center;verticalAlign=middle;resizable=0;points=[];" parent="bsLsJeDPsuY6xlqFyv93-115" vertex="1" connectable="0">
          <mxGeometry x="0.2388" y="2" relative="1" as="geometry">
            <mxPoint as="offset" />
          </mxGeometry>
        </mxCell>
        <mxCell id="bsLsJeDPsuY6xlqFyv93-117" style="edgeStyle=orthogonalEdgeStyle;rounded=0;orthogonalLoop=1;jettySize=auto;html=1;entryX=0.5;entryY=1;entryDx=0;entryDy=0;flowAnimation=1;fillColor=#fad7ac;strokeColor=#b46504;" parent="1" source="bsLsJeDPsuY6xlqFyv93-119" target="bsLsJeDPsuY6xlqFyv93-113" edge="1">
          <mxGeometry relative="1" as="geometry" />
        </mxCell>
        <mxCell id="bsLsJeDPsuY6xlqFyv93-118" value="&lt;font color=&quot;#b266ff&quot;&gt;8080&lt;/font&gt;" style="edgeLabel;html=1;align=center;verticalAlign=middle;resizable=0;points=[];" parent="bsLsJeDPsuY6xlqFyv93-117" vertex="1" connectable="0">
          <mxGeometry x="-0.0222" y="-1" relative="1" as="geometry">
            <mxPoint as="offset" />
          </mxGeometry>
        </mxCell>
        <mxCell id="bsLsJeDPsuY6xlqFyv93-119" value="Shipping" style="rounded=0;whiteSpace=wrap;html=1;fillColor=#fad7ac;strokeColor=#b46504;" parent="1" vertex="1">
          <mxGeometry x="430" y="750" width="120" height="60" as="geometry" />
        </mxCell>
        <mxCell id="bsLsJeDPsuY6xlqFyv93-120" style="edgeStyle=orthogonalEdgeStyle;rounded=0;orthogonalLoop=1;jettySize=auto;html=1;entryX=1;entryY=0.5;entryDx=0;entryDy=0;flowAnimation=1;fillColor=#b0e3e6;strokeColor=#0e8088;" parent="1" source="bsLsJeDPsuY6xlqFyv93-121" target="bsLsJeDPsuY6xlqFyv93-125" edge="1">
          <mxGeometry relative="1" as="geometry" />
        </mxCell>
        <mxCell id="bsLsJeDPsuY6xlqFyv93-161" value="&lt;font color=&quot;#b266ff&quot;&gt;5672&lt;/font&gt;" style="edgeLabel;html=1;align=center;verticalAlign=middle;resizable=0;points=[];" parent="bsLsJeDPsuY6xlqFyv93-120" vertex="1" connectable="0">
          <mxGeometry x="0.1777" y="-1" relative="1" as="geometry">
            <mxPoint as="offset" />
          </mxGeometry>
        </mxCell>
        <mxCell id="bsLsJeDPsuY6xlqFyv93-121" value="Payment" style="rounded=0;whiteSpace=wrap;html=1;fillColor=#b1ddf0;strokeColor=#10739e;" parent="1" vertex="1">
          <mxGeometry x="430" y="870" width="120" height="60" as="geometry" />
        </mxCell>
        <mxCell id="bsLsJeDPsuY6xlqFyv93-122" value="redis" style="rounded=0;whiteSpace=wrap;html=1;fillColor=#a20025;fontColor=#ffffff;strokeColor=#6F0000;" parent="1" vertex="1">
          <mxGeometry x="110" y="495" width="80" height="50" as="geometry" />
        </mxCell>
        <mxCell id="bsLsJeDPsuY6xlqFyv93-123" value="mongo" style="rounded=0;whiteSpace=wrap;html=1;fillColor=#6d8764;fontColor=#ffffff;strokeColor=#3A5431;" parent="1" vertex="1">
          <mxGeometry x="110" y="360" width="80" height="53" as="geometry" />
        </mxCell>
        <mxCell id="bsLsJeDPsuY6xlqFyv93-124" value="mysql" style="rounded=0;whiteSpace=wrap;html=1;fillColor=#76608a;fontColor=#ffffff;strokeColor=#432D57;" parent="1" vertex="1">
          <mxGeometry x="110" y="755" width="80" height="50" as="geometry" />
        </mxCell>
        <mxCell id="bsLsJeDPsuY6xlqFyv93-125" value="rabbit" style="rounded=0;whiteSpace=wrap;html=1;fillColor=#bac8d3;strokeColor=#23445d;" parent="1" vertex="1">
          <mxGeometry x="110" y="875" width="80" height="50" as="geometry" />
        </mxCell>
        <mxCell id="bsLsJeDPsuY6xlqFyv93-126" value="Bastion" style="rounded=0;whiteSpace=wrap;html=1;fillColor=#ffe6cc;strokeColor=#d79b00;" parent="1" vertex="1">
          <mxGeometry x="30" y="150" width="120" height="60" as="geometry" />
        </mxCell>
        <mxCell id="bsLsJeDPsuY6xlqFyv93-127" value="VPN" style="rounded=0;whiteSpace=wrap;html=1;fillColor=#fad9d5;strokeColor=#ae4132;" parent="1" vertex="1">
          <mxGeometry x="680" y="150" width="120" height="60" as="geometry" />
        </mxCell>
        <mxCell id="bsLsJeDPsuY6xlqFyv93-128" style="edgeStyle=orthogonalEdgeStyle;rounded=0;orthogonalLoop=1;jettySize=auto;html=1;exitX=0.5;exitY=1;exitDx=0;exitDy=0;entryX=0.5;entryY=0;entryDx=0;entryDy=0;flowAnimation=1;fillColor=#d5e8d4;strokeColor=#82b366;" parent="1" source="bsLsJeDPsuY6xlqFyv93-129" target="bsLsJeDPsuY6xlqFyv93-132" edge="1">
          <mxGeometry relative="1" as="geometry" />
        </mxCell>
        <mxCell id="bsLsJeDPsuY6xlqFyv93-168" value="&lt;span style=&quot;color: rgb(0, 255, 0); font-size: 12px; background-color: rgb(251, 251, 251);&quot;&gt;80&lt;/span&gt;" style="edgeLabel;html=1;align=center;verticalAlign=middle;resizable=0;points=[];" parent="bsLsJeDPsuY6xlqFyv93-128" vertex="1" connectable="0">
          <mxGeometry x="-0.1619" y="1" relative="1" as="geometry">
            <mxPoint as="offset" />
          </mxGeometry>
        </mxCell>
        <mxCell id="bsLsJeDPsuY6xlqFyv93-129" value="ALB" style="rounded=0;whiteSpace=wrap;html=1;fillColor=#dae8fc;strokeColor=#6c8ebf;" parent="1" vertex="1">
          <mxGeometry x="360" y="90" width="120" height="60" as="geometry" />
        </mxCell>
        <mxCell id="bsLsJeDPsuY6xlqFyv93-130" style="edgeStyle=orthogonalEdgeStyle;rounded=0;orthogonalLoop=1;jettySize=auto;html=1;flowAnimation=1;fillColor=#d5e8d4;gradientColor=#97d077;strokeColor=#82b366;exitX=1;exitY=0.5;exitDx=0;exitDy=0;" parent="1" source="bsLsJeDPsuY6xlqFyv93-132" edge="1">
          <mxGeometry relative="1" as="geometry">
            <mxPoint x="710" y="900" as="targetPoint" />
            <mxPoint x="550" y="240" as="sourcePoint" />
            <Array as="points">
              <mxPoint x="710" y="240" />
            </Array>
          </mxGeometry>
        </mxCell>
        <mxCell id="bsLsJeDPsuY6xlqFyv93-131" value="&lt;font color=&quot;#b266ff&quot;&gt;8080&lt;/font&gt;" style="edgeLabel;html=1;align=center;verticalAlign=middle;resizable=0;points=[];" parent="bsLsJeDPsuY6xlqFyv93-130" vertex="1" connectable="0">
          <mxGeometry x="-0.4329" y="-1" relative="1" as="geometry">
            <mxPoint x="1" y="28" as="offset" />
          </mxGeometry>
        </mxCell>
        <mxCell id="bsLsJeDPsuY6xlqFyv93-132" value="Frontend" style="rounded=0;whiteSpace=wrap;html=1;fillColor=#d5e8d4;strokeColor=#82b366;" parent="1" vertex="1">
          <mxGeometry x="360" y="220" width="120" height="40" as="geometry" />
        </mxCell>
        <mxCell id="bsLsJeDPsuY6xlqFyv93-133" value="" style="endArrow=classic;html=1;rounded=0;flowAnimation=1;fillColor=#fad9d5;strokeColor=#ae4132;exitX=0.511;exitY=1.133;exitDx=0;exitDy=0;exitPerimeter=0;" parent="1" source="bsLsJeDPsuY6xlqFyv93-145" edge="1">
          <mxGeometry width="50" height="50" relative="1" as="geometry">
            <mxPoint x="419" y="-60" as="sourcePoint" />
            <mxPoint x="420" y="-40" as="targetPoint" />
          </mxGeometry>
        </mxCell>
        <mxCell id="bsLsJeDPsuY6xlqFyv93-134" value="&lt;span style=&quot;color: rgb(255, 128, 0); font-size: 12px; background-color: rgb(251, 251, 251);&quot;&gt;1194,943,443,22&lt;/span&gt;" style="endArrow=classic;html=1;rounded=0;flowAnimation=1;fillColor=#fad7ac;strokeColor=#b46504;entryX=0.567;entryY=-0.056;entryDx=0;entryDy=0;entryPerimeter=0;" parent="1" target="bsLsJeDPsuY6xlqFyv93-127" edge="1">
          <mxGeometry width="50" height="50" relative="1" as="geometry">
            <mxPoint x="420" y="-40" as="sourcePoint" />
            <mxPoint x="770" y="20" as="targetPoint" />
            <Array as="points">
              <mxPoint x="750" y="50" />
            </Array>
          </mxGeometry>
        </mxCell>
        <mxCell id="bsLsJeDPsuY6xlqFyv93-135" value="&lt;br style=&quot;font-size: 12px; background-color: rgb(251, 251, 251);&quot;&gt;&lt;span style=&quot;font-size: 12px; color: rgb(255, 128, 0); background-color: rgb(251, 251, 251);&quot;&gt;22&lt;/span&gt;" style="endArrow=classic;html=1;rounded=0;flowAnimation=1;fillColor=#fad7ac;strokeColor=#b46504;" parent="1" edge="1">
          <mxGeometry x="0.005" y="-9" width="50" height="50" relative="1" as="geometry">
            <mxPoint x="420" y="-40" as="sourcePoint" />
            <mxPoint x="90" y="150" as="targetPoint" />
            <Array as="points">
              <mxPoint x="90" y="54.019999999999996" />
            </Array>
            <mxPoint y="-1" as="offset" />
          </mxGeometry>
        </mxCell>
        <mxCell id="bsLsJeDPsuY6xlqFyv93-136" value="" style="endArrow=classic;html=1;rounded=0;entryX=1;entryY=0.5;entryDx=0;entryDy=0;flowAnimation=1;fillColor=#e1d5e7;strokeColor=#00CC00;" parent="1" target="bsLsJeDPsuY6xlqFyv93-119" edge="1">
          <mxGeometry width="50" height="50" relative="1" as="geometry">
            <mxPoint x="710" y="780" as="sourcePoint" />
            <mxPoint x="520" y="660" as="targetPoint" />
          </mxGeometry>
        </mxCell>
        <mxCell id="bsLsJeDPsuY6xlqFyv93-137" value="" style="endArrow=classic;html=1;rounded=0;entryX=1;entryY=0.5;entryDx=0;entryDy=0;flowAnimation=1;fillColor=#e1d5e7;strokeColor=#00CC00;" parent="1" target="bsLsJeDPsuY6xlqFyv93-110" edge="1">
          <mxGeometry width="50" height="50" relative="1" as="geometry">
            <mxPoint x="710" y="520" as="sourcePoint" />
            <mxPoint x="530" y="120" as="targetPoint" />
          </mxGeometry>
        </mxCell>
        <mxCell id="bsLsJeDPsuY6xlqFyv93-138" value="" style="endArrow=classic;html=1;rounded=0;entryX=1;entryY=0.5;entryDx=0;entryDy=0;flowAnimation=1;fillColor=#e1d5e7;strokeColor=#00FF00;" parent="1" target="bsLsJeDPsuY6xlqFyv93-113" edge="1">
          <mxGeometry width="50" height="50" relative="1" as="geometry">
            <mxPoint x="710" y="660" as="sourcePoint" />
            <mxPoint x="540" y="130" as="targetPoint" />
          </mxGeometry>
        </mxCell>
        <mxCell id="bsLsJeDPsuY6xlqFyv93-139" value="" style="endArrow=classic;html=1;rounded=0;entryX=0.983;entryY=0.633;entryDx=0;entryDy=0;flowAnimation=1;fillColor=#e1d5e7;strokeColor=#00FF00;entryPerimeter=0;" parent="1" target="bsLsJeDPsuY6xlqFyv93-114" edge="1">
          <mxGeometry width="50" height="50" relative="1" as="geometry">
            <mxPoint x="710" y="388" as="sourcePoint" />
            <mxPoint x="550" y="140" as="targetPoint" />
          </mxGeometry>
        </mxCell>
        <mxCell id="bsLsJeDPsuY6xlqFyv93-141" value="" style="endArrow=classic;html=1;rounded=0;entryX=0.5;entryY=0;entryDx=0;entryDy=0;flowAnimation=1;fillColor=#b1ddf0;strokeColor=#66B2FF;" parent="1" target="bsLsJeDPsuY6xlqFyv93-129" edge="1">
          <mxGeometry width="50" height="50" relative="1" as="geometry">
            <mxPoint x="420" y="-40" as="sourcePoint" />
            <mxPoint x="490" y="140" as="targetPoint" />
          </mxGeometry>
        </mxCell>
        <mxCell id="bsLsJeDPsuY6xlqFyv93-165" value="&lt;span style=&quot;color: rgb(0, 127, 255); font-size: 12px; background-color: rgb(251, 251, 251);&quot;&gt;80,443&lt;/span&gt;" style="edgeLabel;html=1;align=center;verticalAlign=middle;resizable=0;points=[];" parent="bsLsJeDPsuY6xlqFyv93-141" vertex="1" connectable="0">
          <mxGeometry x="0.2" y="1" relative="1" as="geometry">
            <mxPoint as="offset" />
          </mxGeometry>
        </mxCell>
        <mxCell id="bsLsJeDPsuY6xlqFyv93-142" value="" style="endArrow=classic;html=1;rounded=0;flowAnimation=1;fillColor=#e1d5e7;strokeColor=#00CC00;" parent="1" edge="1">
          <mxGeometry width="50" height="50" relative="1" as="geometry">
            <mxPoint x="709" y="900" as="sourcePoint" />
            <mxPoint x="550" y="900" as="targetPoint" />
          </mxGeometry>
        </mxCell>
        <mxCell id="bsLsJeDPsuY6xlqFyv93-145" value="Internet" style="text;html=1;align=center;verticalAlign=middle;resizable=0;points=[];autosize=1;strokeColor=#b85450;fillColor=#f8cecc;" parent="1" vertex="1">
          <mxGeometry x="385" y="-250" width="60" height="30" as="geometry" />
        </mxCell>
        <mxCell id="bsLsJeDPsuY6xlqFyv93-147" value="" style="endArrow=classic;html=1;rounded=0;entryX=1;entryY=0.5;entryDx=0;entryDy=0;flowAnimation=1;fillColor=#e1d5e7;strokeColor=#9673a6;exitX=-0.028;exitY=0.622;exitDx=0;exitDy=0;exitPerimeter=0;" parent="1" source="bsLsJeDPsuY6xlqFyv93-114" target="bsLsJeDPsuY6xlqFyv93-123" edge="1">
          <mxGeometry width="50" height="50" relative="1" as="geometry">
            <mxPoint x="720" y="398" as="sourcePoint" />
            <mxPoint x="558" y="398" as="targetPoint" />
            <Array as="points">
              <mxPoint x="290" y="387" />
            </Array>
          </mxGeometry>
        </mxCell>
        <mxCell id="bsLsJeDPsuY6xlqFyv93-148" value="&lt;font color=&quot;#b266ff&quot;&gt;27017&lt;/font&gt;" style="edgeLabel;html=1;align=center;verticalAlign=middle;resizable=0;points=[];" parent="bsLsJeDPsuY6xlqFyv93-147" vertex="1" connectable="0">
          <mxGeometry x="0.3041" y="-1" relative="1" as="geometry">
            <mxPoint as="offset" />
          </mxGeometry>
        </mxCell>
        <mxCell id="bsLsJeDPsuY6xlqFyv93-149" value="" style="endArrow=classic;html=1;rounded=0;flowAnimation=1;fillColor=#a20025;strokeColor=#6F0000;" parent="1" edge="1">
          <mxGeometry width="50" height="50" relative="1" as="geometry">
            <mxPoint x="430" y="520" as="sourcePoint" />
            <mxPoint x="190" y="390" as="targetPoint" />
          </mxGeometry>
        </mxCell>
        <mxCell id="bsLsJeDPsuY6xlqFyv93-150" value="&lt;font color=&quot;#b266ff&quot;&gt;27017&lt;/font&gt;" style="edgeLabel;html=1;align=center;verticalAlign=middle;resizable=0;points=[];" parent="bsLsJeDPsuY6xlqFyv93-149" vertex="1" connectable="0">
          <mxGeometry x="0.2188" y="-1" relative="1" as="geometry">
            <mxPoint as="offset" />
          </mxGeometry>
        </mxCell>
        <mxCell id="bsLsJeDPsuY6xlqFyv93-151" value="" style="endArrow=classic;html=1;rounded=0;entryX=-0.025;entryY=0.389;entryDx=0;entryDy=0;entryPerimeter=0;flowAnimation=1;fillColor=#dae8fc;strokeColor=#6c8ebf;gradientColor=#7ea6e0;" parent="1" target="bsLsJeDPsuY6xlqFyv93-114" edge="1">
          <mxGeometry width="50" height="50" relative="1" as="geometry">
            <mxPoint x="427" y="660" as="sourcePoint" />
            <mxPoint x="550" y="610" as="targetPoint" />
            <Array as="points">
              <mxPoint x="350" y="373" />
            </Array>
          </mxGeometry>
        </mxCell>
        <mxCell id="bsLsJeDPsuY6xlqFyv93-152" value="&lt;font color=&quot;#b266ff&quot;&gt;8080&lt;/font&gt;" style="edgeLabel;html=1;align=center;verticalAlign=middle;resizable=0;points=[];" parent="bsLsJeDPsuY6xlqFyv93-151" vertex="1" connectable="0">
          <mxGeometry x="0.2784" y="-1" relative="1" as="geometry">
            <mxPoint as="offset" />
          </mxGeometry>
        </mxCell>
        <mxCell id="bsLsJeDPsuY6xlqFyv93-153" value="" style="endArrow=classic;html=1;rounded=0;flowAnimation=1;exitX=-0.025;exitY=0.4;exitDx=0;exitDy=0;exitPerimeter=0;fillColor=#b0e3e6;strokeColor=#0e8088;" parent="1" source="bsLsJeDPsuY6xlqFyv93-121" edge="1">
          <mxGeometry width="50" height="50" relative="1" as="geometry">
            <mxPoint x="310" y="900" as="sourcePoint" />
            <mxPoint x="490" y="690" as="targetPoint" />
            <Array as="points">
              <mxPoint x="360" y="740" />
            </Array>
          </mxGeometry>
        </mxCell>
        <mxCell id="bsLsJeDPsuY6xlqFyv93-154" value="&lt;font color=&quot;#b266ff&quot;&gt;8080&lt;/font&gt;" style="edgeLabel;html=1;align=center;verticalAlign=middle;resizable=0;points=[];" parent="bsLsJeDPsuY6xlqFyv93-153" vertex="1" connectable="0">
          <mxGeometry x="0.385" y="1" relative="1" as="geometry">
            <mxPoint as="offset" />
          </mxGeometry>
        </mxCell>
        <mxCell id="bsLsJeDPsuY6xlqFyv93-155" value="" style="endArrow=classic;html=1;rounded=0;entryX=0.5;entryY=1;entryDx=0;entryDy=0;flowAnimation=1;fillColor=#b0e3e6;strokeColor=#0e8088;" parent="1" target="bsLsJeDPsuY6xlqFyv93-110" edge="1">
          <mxGeometry width="50" height="50" relative="1" as="geometry">
            <mxPoint x="430" y="900" as="sourcePoint" />
            <mxPoint x="500" y="560" as="targetPoint" />
            <Array as="points">
              <mxPoint x="330" y="750" />
              <mxPoint x="330" y="590" />
            </Array>
          </mxGeometry>
        </mxCell>
        <mxCell id="bsLsJeDPsuY6xlqFyv93-156" value="&lt;font color=&quot;#b266ff&quot;&gt;8080&lt;/font&gt;" style="edgeLabel;html=1;align=center;verticalAlign=middle;resizable=0;points=[];" parent="bsLsJeDPsuY6xlqFyv93-155" vertex="1" connectable="0">
          <mxGeometry x="0.2099" y="1" relative="1" as="geometry">
            <mxPoint as="offset" />
          </mxGeometry>
        </mxCell>
        <mxCell id="bsLsJeDPsuY6xlqFyv93-170" value="&lt;font color=&quot;#b266ff&quot;&gt;ecs-instana&lt;/font&gt;&lt;div&gt;&lt;br&gt;&lt;/div&gt;" style="points=[[0,0],[0.25,0],[0.5,0],[0.75,0],[1,0],[1,0.25],[1,0.5],[1,0.75],[1,1],[0.75,1],[0.5,1],[0.25,1],[0,1],[0,0.75],[0,0.5],[0,0.25]];outlineConnect=0;gradientColor=none;html=1;whiteSpace=wrap;fontSize=12;fontStyle=0;container=1;pointerEvents=0;collapsible=0;recursiveResize=0;shape=mxgraph.aws4.group;grIcon=mxgraph.aws4.group_vpc2;strokeColor=#8C4FFF;fillColor=none;verticalAlign=top;align=left;spacingLeft=30;fontColor=#AAB7B8;dashed=0;" parent="1" vertex="1">
          <mxGeometry x="10" y="-220" width="810" height="1200" as="geometry" />
        </mxCell>
      </root>
    </mxGraphModel>
  </diagram>
</mxfile>
